# xmcd CD database file
#
# Track frame offsets:
#	150
#	37450
#	71377
#	118600
#	150557
#	179650
#	211667
#	235760
#	258837
#	266247
#
# Disc length: 3932 seconds
#
# Revision: 0
# Processed by: cddbd v1.5.2PL0 Copyright (c) Steve Scherf et al.
# Submitted via: CDex 1.51
#
DISCID=8d0f5a0a
DTITLE=Steve Nelson - Fuller Nelson
DYEAR=2004
DGENRE=Jazz
TTITLE0=The Second Time Around
TTITLE1=Kirk's New Delight
TTITLE2=I Don't Stand A Ghost Of A Chance With You
TTITLE3=Song For Justine
TTITLE4=Easy To Love
TTITLE5=Heaven Dance
TTITLE6=Minor Blues
TTITLE7=For Wes
TTITLE8=Original # 2
TTITLE9=Laila In Blues
EXTD=YEAR: 2004
EXTT0=
EXTT1=
EXTT2=
EXTT3=
EXTT4=
EXTT5=
EXTT6=
EXTT7=
EXTT8=
EXTT9=
PLAYORDER=
